<svg width="24" height="24" viewBox="0 0 24 24" fill="none" xmlns="http://www.w3.org/2000/svg">
<path d="M6.00283 5.12407C5.98499 4.7245 6.04722 4.32539 6.18588 3.95023C6.32454 3.57506 6.53682 3.23141 6.81023 2.93948C7.08365 2.64755 7.41268 2.41324 7.77797 2.25034C8.14326 2.08744 8.53744 1.99922 8.93733 1.99089C9.33721 1.98255 9.73472 2.05426 10.1065 2.2018C10.4783 2.34935 10.8168 2.56974 11.1021 2.85002C11.3874 3.1303 11.6139 3.46481 11.768 3.83387C11.9222 4.20294 12.001 4.5991 11.9998 4.99907V17.9991M6.00283 5.12407C5.41503 5.27521 4.86933 5.55812 4.40706 5.95139C3.94479 6.34465 3.57807 6.83795 3.33467 7.39392C3.09128 7.9499 2.97759 8.55397 3.00222 9.16039C3.02685 9.7668 3.18915 10.3597 3.47683 10.8941M6.00283 5.12407C6.02261 5.60781 6.15916 6.07957 6.40083 6.49907M3.47683 10.8941C2.97101 11.305 2.57326 11.8333 2.31817 12.433C2.06308 13.0327 1.95839 13.6857 2.01319 14.3351C2.068 14.9845 2.28065 15.6106 2.63264 16.1591C2.98462 16.7076 3.46529 17.1617 4.03283 17.4821M3.47683 10.8941C3.65977 10.7451 3.85553 10.6136 4.06183 10.4991M4.03283 17.4821C3.96275 18.0243 4.00457 18.5752 4.15572 19.1006C4.30686 19.626 4.56413 20.1149 4.91161 20.537C5.2591 20.9591 5.68944 21.3055 6.17605 21.5548C6.66266 21.8041 7.19521 21.951 7.74081 21.9864C8.28641 22.0218 8.83347 21.945 9.34822 21.7607C9.86296 21.5764 10.3345 21.2885 10.7336 20.9148C11.1327 20.5412 11.451 20.0896 11.6688 19.5881C11.8866 19.0866 11.9992 18.5458 11.9998 17.9991M4.03283 17.4821C4.6331 17.8207 5.31066 17.9994 5.99983 17.9991M11.9998 17.9991H17.9998C18.5303 17.9991 19.039 18.2098 19.414 18.5849C19.7891 18.9599 19.9998 19.4686 19.9998 19.9991V20.9991M8.99983 12.9991C9.83939 12.7037 10.5725 12.1661 11.1065 11.4541C11.6405 10.7421 11.9514 9.88774 11.9998 8.99907M11.9998 12.9991H15.9998M11.9998 7.99907H19.9998M15.9998 7.99907V4.99907C15.9998 4.46864 16.2105 3.95993 16.5856 3.58486C16.9607 3.20979 17.4694 2.99907 17.9998 2.99907M16.4998 12.9991C16.4998 13.2752 16.276 13.4991 15.9998 13.4991C15.7237 13.4991 15.4998 13.2752 15.4998 12.9991C15.4998 12.7229 15.7237 12.4991 15.9998 12.4991C16.276 12.4991 16.4998 12.7229 16.4998 12.9991ZM18.4998 2.99907C18.4998 3.27522 18.276 3.49907 17.9998 3.49907C17.7237 3.49907 17.4998 3.27522 17.4998 2.99907C17.4998 2.72293 17.7237 2.49907 17.9998 2.49907C18.276 2.49907 18.4998 2.72293 18.4998 2.99907ZM20.4998 20.9991C20.4998 21.2752 20.276 21.4991 19.9998 21.4991C19.7237 21.4991 19.4998 21.2752 19.4998 20.9991C19.4998 20.7229 19.7237 20.4991 19.9998 20.4991C20.276 20.4991 20.4998 20.7229 20.4998 20.9991ZM20.4998 7.99907C20.4998 8.27522 20.276 8.49907 19.9998 8.49907C19.7237 8.49907 19.4998 8.27522 19.4998 7.99907C19.4998 7.72293 19.7237 7.49907 19.9998 7.49907C20.276 7.49907 20.4998 7.72293 20.4998 7.99907Z" stroke="#5B5B5B" stroke-width="2" stroke-linecap="round" stroke-linejoin="round"/>
</svg>
