<svg width="25" height="25" viewBox="0 0 25 25" fill="none" xmlns="http://www.w3.org/2000/svg">
<path fill-rule="evenodd" clip-rule="evenodd" d="M12.5 4.95312C10.2909 4.95312 8.5 6.74399 8.5 8.95312C8.5 11.1623 10.2909 12.9531 12.5 12.9531C14.7091 12.9531 16.5 11.1623 16.5 8.95312C16.5 6.74399 14.7091 4.95312 12.5 4.95312ZM6.5 8.95312C6.5 5.63942 9.18629 2.95312 12.5 2.95312C15.8137 2.95312 18.5 5.63942 18.5 8.95312C18.5 12.2668 15.8137 14.9531 12.5 14.9531C9.18629 14.9531 6.5 12.2668 6.5 8.95312Z" fill="white"/>
<path fill-rule="evenodd" clip-rule="evenodd" d="M6.13604 15.5892C7.82387 13.9013 10.1131 12.9531 12.5 12.9531C14.8869 12.9531 17.1761 13.9013 18.864 15.5892C20.5518 17.277 21.5 19.5662 21.5 21.9531C21.5 22.5054 21.0523 22.9531 20.5 22.9531C19.9477 22.9531 19.5 22.5054 19.5 21.9531C19.5 20.0966 18.7625 18.3161 17.4497 17.0034C16.137 15.6906 14.3565 14.9531 12.5 14.9531C10.6435 14.9531 8.86301 15.6906 7.55025 17.0034C6.2375 18.3161 5.5 20.0966 5.5 21.9531C5.5 22.5054 5.05228 22.9531 4.5 22.9531C3.94772 22.9531 3.5 22.5054 3.5 21.9531C3.5 19.5662 4.44821 17.277 6.13604 15.5892Z" fill="white"/>
</svg>
