<svg width="24" height="24" viewBox="0 0 24 24" fill="none" xmlns="http://www.w3.org/2000/svg">
<path fill-rule="evenodd" clip-rule="evenodd" d="M10.48 2.39428C10.9385 2.1271 11.4597 1.98633 11.9904 1.98633C12.5211 1.98633 13.0423 2.1271 13.5008 2.39428C13.9587 2.66112 14.3378 3.04451 14.5994 3.50542C14.5998 3.50601 14.6001 3.50659 14.6004 3.50717L22.5964 17.5002C22.5968 17.5008 22.5971 17.5013 22.5974 17.5019C22.86 17.9573 22.9982 18.4738 22.9984 18.9995C22.9985 19.5258 22.8602 20.0429 22.5972 20.4989C22.3343 20.9549 21.956 21.3336 21.5004 21.5971C21.0447 21.8607 20.5278 21.9997 20.0014 22.0002H4.00452C3.47731 22.0041 2.95836 21.869 2.49996 21.6084C2.04014 21.3471 1.65759 20.9688 1.39109 20.5119C1.12458 20.0551 0.983601 19.5359 0.982429 19.0069C0.98126 18.4789 1.11951 17.9598 1.38318 17.5023C1.38359 17.5016 1.384 17.5009 1.38442 17.5002L9.38042 3.50717C9.38075 3.50659 9.38108 3.50601 9.38141 3.50542C9.64303 3.04451 10.0221 2.66112 10.48 2.39428ZM11.9904 3.98633C11.8135 3.98633 11.6398 4.03325 11.487 4.12231C11.3341 4.21137 11.2076 4.33938 11.1204 4.49328L11.1187 4.49636L3.11643 18.5003C3.02827 18.653 2.98203 18.8262 2.98242 19.0025C2.98281 19.1788 3.02981 19.3519 3.11864 19.5042C3.20748 19.6565 3.33499 19.7826 3.48827 19.8697C3.64154 19.9568 3.81512 20.0019 3.99142 20.0003L4.00042 20.0002L19.9994 20.0002C20.1748 20 20.3472 19.9537 20.499 19.8659C20.6509 19.778 20.777 19.6518 20.8646 19.4998C20.9523 19.3478 20.9984 19.1754 20.9984 19C20.9983 18.8245 20.9521 18.6522 20.8644 18.5002L20.8622 18.4964L12.8622 4.49636L12.8604 4.49328C12.7732 4.33938 12.6467 4.21137 12.4939 4.12231C12.341 4.03325 12.1673 3.98633 11.9904 3.98633Z" fill="#5B5B5B"/>
<path fill-rule="evenodd" clip-rule="evenodd" d="M12 8C12.5523 8 13 8.44772 13 9V13C13 13.5523 12.5523 14 12 14C11.4477 14 11 13.5523 11 13V9C11 8.44772 11.4477 8 12 8Z" fill="#5B5B5B"/>
<path fill-rule="evenodd" clip-rule="evenodd" d="M11 17C11 16.4477 11.4477 16 12 16H12.01C12.5623 16 13.01 16.4477 13.01 17C13.01 17.5523 12.5623 18 12.01 18H12C11.4477 18 11 17.5523 11 17Z" fill="#5B5B5B"/>
</svg>
