<svg width="24" height="24" viewBox="0 0 24 24" fill="none" xmlns="http://www.w3.org/2000/svg">
<path fill-rule="evenodd" clip-rule="evenodd" d="M8 12C8 11.4477 8.44772 11 9 11H9.01C9.56228 11 10.01 11.4477 10.01 12C10.01 12.5523 9.56228 13 9.01 13H9C8.44772 13 8 12.5523 8 12Z" fill="#5B5B5B"/>
<path fill-rule="evenodd" clip-rule="evenodd" d="M14 12C14 11.4477 14.4477 11 15 11H15.01C15.5623 11 16.01 11.4477 16.01 12C16.01 12.5523 15.5623 13 15.01 13H15C14.4477 13 14 12.5523 14 12Z" fill="#5B5B5B"/>
<path fill-rule="evenodd" clip-rule="evenodd" d="M9.14266 15.4857C9.42681 15.0121 10.0411 14.8585 10.5146 15.1427C10.8402 15.338 11.3578 15.5002 12.0002 15.5002C12.6425 15.5002 13.1601 15.338 13.4857 15.1427C13.9592 14.8585 14.5735 15.0121 14.8576 15.4857C15.1418 15.9592 14.9882 16.5735 14.5146 16.8576C13.8402 17.2623 12.9578 17.5002 12.0002 17.5002C11.0425 17.5002 10.1601 17.2623 9.48566 16.8576C9.01208 16.5735 8.85851 15.9592 9.14266 15.4857Z" fill="#5B5B5B"/>
<path fill-rule="evenodd" clip-rule="evenodd" d="M11.9965 2L11.9985 2C13.1734 2 14.2614 2.32205 15.0828 2.91347C15.9093 3.50849 16.4985 4.41139 16.4985 5.5C16.4985 7.23955 15.3419 9 13.4985 9C12.9461 9 12.3763 8.86431 11.9117 8.56866C11.4408 8.26904 10.9985 7.73886 10.9985 7C10.9985 6.44772 11.4462 6 11.9985 6C12.5121 6 12.9352 6.38712 12.992 6.88547C13.0799 6.93889 13.2572 7 13.4985 7C13.8552 7 14.4985 6.56046 14.4985 5.5C14.4985 5.18861 14.3378 4.84151 13.9142 4.53654C13.4858 4.22808 12.8242 4.00019 11.9995 4C10.1587 4.00395 8.37554 4.64263 6.9508 5.80833C5.52579 6.97424 4.54656 8.596 4.17833 10.4C4.116 10.7053 3.91489 10.9642 3.63442 11.1C3.46535 11.1819 3.32277 11.3097 3.223 11.4689C3.12323 11.6281 3.07031 11.8121 3.07031 12C3.07031 12.1879 3.12323 12.3719 3.223 12.5311C3.32277 12.6903 3.46535 12.8181 3.63442 12.9C3.91178 13.0343 4.1117 13.289 4.17631 13.5904C4.56005 15.3801 5.54594 16.9842 6.96948 18.1348C8.39301 19.2855 10.1681 19.9132 11.9985 19.9132C13.829 19.9132 15.6041 19.2855 17.0276 18.1348C18.4511 16.9842 19.437 15.3801 19.8208 13.5904C19.8854 13.289 20.0853 13.0343 20.3626 12.9C20.5317 12.8181 20.6743 12.6903 20.7741 12.5311C20.8738 12.3719 20.9268 12.1879 20.9268 12C20.9268 11.8121 20.8738 11.6281 20.7741 11.4689C20.6743 11.3097 20.5317 11.1819 20.3626 11.1C20.079 10.9626 19.8768 10.6996 19.8168 10.3903C19.5711 9.12253 19.0221 7.93311 18.2168 6.92362C17.8724 6.49188 17.9432 5.86269 18.3749 5.51827C18.8067 5.17386 19.4358 5.24465 19.7803 5.67638C20.693 6.82051 21.3423 8.14956 21.6844 9.56884C21.996 9.79412 22.2628 10.0782 22.4687 10.4067C22.768 10.8843 22.9268 11.4364 22.9268 12C22.9268 12.5636 22.768 13.1157 22.4687 13.5933C22.2606 13.9253 21.9903 14.2119 21.6745 14.4383C21.1358 16.5024 19.9498 18.3444 18.2849 19.6902C16.5054 21.1286 14.2866 21.9132 11.9985 21.9132C9.71049 21.9132 7.49164 21.1286 5.71221 19.6902C4.04724 18.3444 2.86121 16.5024 2.32259 14.4383C2.00672 14.2119 1.73649 13.9253 1.52836 13.5933C1.22906 13.1157 1.07031 12.5636 1.07031 12C1.07031 11.4364 1.22906 10.8843 1.52836 10.4067C1.7354 10.0764 2.00389 9.79109 2.31762 9.56524C2.83976 7.48506 4.01832 5.6235 5.68432 4.26041C7.46558 2.80302 9.69503 2.00465 11.9965 2Z" fill="#5B5B5B"/>
</svg>
