<svg width="24" height="24" viewBox="0 0 24 24" fill="none" xmlns="http://www.w3.org/2000/svg">
<path fill-rule="evenodd" clip-rule="evenodd" d="M1.29289 1.29289C1.68342 0.902369 2.31658 0.902369 2.70711 1.29289L22.7071 21.2929C23.0976 21.6834 23.0976 22.3166 22.7071 22.7071C22.3166 23.0976 21.6834 23.0976 21.2929 22.7071L1.29289 2.70711C0.902369 2.31658 0.902369 1.68342 1.29289 1.29289Z" fill="#5B5B5B"/>
<path fill-rule="evenodd" clip-rule="evenodd" d="M1.87868 6.87868C2.44129 6.31607 3.20435 6 4 6H7C7.55228 6 8 6.44772 8 7C8 7.55228 7.55228 8 7 8H4C3.73478 8 3.48043 8.10536 3.29289 8.29289C3.10536 8.48043 3 8.73478 3 9V18C3 18.2652 3.10536 18.5196 3.29289 18.7071C3.48043 18.8946 3.73478 19 4 19H20C20.5523 19 21 19.4477 21 20C21 20.5523 20.5523 21 20 21H4C3.20435 21 2.44129 20.6839 1.87868 20.1213C1.31607 19.5587 1 18.7956 1 18V9C1 8.20435 1.31607 7.44129 1.87868 6.87868Z" fill="#5B5B5B"/>
<path fill-rule="evenodd" clip-rule="evenodd" d="M8.5 4C8.5 3.44772 8.94772 3 9.5 3H14.5C14.7968 3 15.0782 3.13182 15.2682 3.35982L17.4684 6H20C20.7956 6 21.5587 6.31607 22.1213 6.87868C22.6839 7.44129 23 8.20435 23 9V16.5C23 17.0523 22.5523 17.5 22 17.5C21.4477 17.5 21 17.0523 21 16.5V9C21 8.73478 20.8946 8.48043 20.7071 8.29289C20.5196 8.10536 20.2652 8 20 8H17C16.7032 8 16.4218 7.86818 16.2318 7.64018L14.0316 5H9.5C8.94772 5 8.5 4.55228 8.5 4Z" fill="#5B5B5B"/>
<path fill-rule="evenodd" clip-rule="evenodd" d="M10.6103 10.1956C10.9898 10.5969 10.9722 11.2298 10.571 11.6093C10.3768 11.793 10.2213 12.0138 10.1139 12.2586C10.0065 12.5034 9.94922 12.7672 9.94551 13.0345C9.94179 13.3018 9.9917 13.5671 10.0923 13.8148C10.1929 14.0625 10.3421 14.2875 10.5311 14.4765C10.7201 14.6655 10.9451 14.8148 11.1928 14.9153C11.4405 15.0159 11.7058 15.0658 11.9731 15.0621C12.2404 15.0584 12.5043 15.0011 12.7491 14.8937C12.9938 14.7863 13.2146 14.6309 13.3983 14.4366C13.7778 14.0354 14.4107 14.0178 14.812 14.3973C15.2132 14.7768 15.2308 15.4098 14.8513 15.811C14.4839 16.1994 14.0424 16.5102 13.5528 16.7251C13.0632 16.94 12.5355 17.0545 12.0009 17.0619C11.4663 17.0694 10.9357 16.9695 10.4403 16.7684C9.94495 16.5672 9.49494 16.2688 9.11689 15.8907C8.73883 15.5127 8.4404 15.0627 8.23924 14.5673C8.03808 14.0719 7.93826 13.5413 7.9457 13.0067C7.95313 12.4721 8.06766 11.9444 8.28252 11.4548C8.49738 10.9652 8.80821 10.5237 9.19663 10.1563C9.59786 9.7768 10.2308 9.79441 10.6103 10.1956Z" fill="#5B5B5B"/>
</svg>
