<svg width="24" height="24" viewBox="0 0 24 24" fill="none" xmlns="http://www.w3.org/2000/svg">
<path d="M12 17.0008V21.0008M15.2 4.90078L14.3 4.50078M15.2 7.10078L14.3 7.50078M16.9 3.20078L16.5 2.30078M16.9 8.80078L16.5 9.70078M19.5 2.30078L19.1 3.20078M19.5 9.70078L19.1 8.80078M21.7 4.50078L20.8 4.90078M21.7 7.50078L20.8 7.10078M22 13.0008V15.0008C22 15.5312 21.7893 16.0399 21.4142 16.415C21.0391 16.7901 20.5304 17.0008 20 17.0008H4C3.46957 17.0008 2.96086 16.7901 2.58579 16.415C2.21071 16.0399 2 15.5312 2 15.0008V5.00078C2 4.47035 2.21071 3.96164 2.58579 3.58657C2.96086 3.21149 3.46957 3.00078 4 3.00078H11M8 21.0008H16M21 6.00078C21 7.65764 19.6569 9.00078 18 9.00078C16.3431 9.00078 15 7.65764 15 6.00078C15 4.34393 16.3431 3.00078 18 3.00078C19.6569 3.00078 21 4.34393 21 6.00078Z" stroke="#5B5B5B" stroke-width="2" stroke-linecap="round" stroke-linejoin="round"/>
</svg>
