<svg width="36" height="36" viewBox="0 0 36 36" fill="none" xmlns="http://www.w3.org/2000/svg">
<circle cx="17.8082" cy="18.0411" r="17.8082" fill="white"/>
<g clip-path="url(#clip0_8007_1080)">
<path d="M19.1641 9.51428H12.9974C12.5554 9.51428 12.1314 9.68988 11.8189 10.0024C11.5063 10.315 11.3307 10.7389 11.3307 11.181V24.5143C11.3307 24.9563 11.5063 25.3802 11.8189 25.6928C12.1314 26.0054 12.5554 26.181 12.9974 26.181H22.9974C23.4394 26.181 23.8633 26.0054 24.1759 25.6928C24.4885 25.3802 24.6641 24.9563 24.6641 24.5143V18.3476M9.66406 12.8476H12.9974M9.66406 16.181H12.9974M9.66406 19.5143H12.9974M9.66406 22.8476H12.9974M25.8124 12.536C26.1444 12.204 26.3309 11.7538 26.3309 11.2843C26.3309 10.8148 26.1444 10.3646 25.8124 10.0326C25.4804 9.70065 25.0302 9.51416 24.5607 9.51416C24.0913 9.51416 23.641 9.70065 23.3091 10.0326L19.1341 14.2093C18.9359 14.4073 18.7909 14.6521 18.7124 14.921L18.0149 17.3126C17.994 17.3843 17.9927 17.4603 18.0113 17.5327C18.0298 17.6051 18.0675 17.6711 18.1203 17.7239C18.1731 17.7767 18.2391 17.8144 18.3115 17.8329C18.3838 17.8515 18.4599 17.8502 18.5316 17.8293L20.9232 17.1318C21.1921 17.0533 21.4369 16.9082 21.6349 16.7101L25.8124 12.536Z" stroke="#3576C2" stroke-width="1.66667" stroke-linecap="round" stroke-linejoin="round"/>
</g>
<defs>
<clipPath id="clip0_8007_1080">
<rect width="20" height="20" fill="white" transform="translate(8 7.8501)"/>
</clipPath>
</defs>
</svg>
