<svg width="36" height="36" viewBox="0 0 36 36" fill="none" xmlns="http://www.w3.org/2000/svg">
<circle cx="17.8082" cy="17.8082" r="17.8082" fill="white"/>
<path fill-rule="evenodd" clip-rule="evenodd" d="M12.5445 19.7085C13.6384 18.6146 15.1222 18 16.6693 18C18.2164 18 19.7001 18.6146 20.7941 19.7085C21.888 20.8025 22.5026 22.2862 22.5026 23.8333C22.5026 24.2936 22.1295 24.6667 21.6693 24.6667C21.209 24.6667 20.8359 24.2936 20.8359 23.8333C20.8359 22.7283 20.397 21.6685 19.6155 20.8871C18.8341 20.1057 17.7743 19.6667 16.6693 19.6667C15.5642 19.6667 14.5044 20.1057 13.723 20.8871C12.9416 21.6685 12.5026 22.7283 12.5026 23.8333C12.5026 24.2936 12.1295 24.6667 11.6693 24.6667C11.209 24.6667 10.8359 24.2936 10.8359 23.8333C10.8359 22.2862 11.4505 20.8025 12.5445 19.7085Z" fill="#3576C2"/>
<path fill-rule="evenodd" clip-rule="evenodd" d="M16.6667 13.0026C15.286 13.0026 14.1667 14.1219 14.1667 15.5026C14.1667 16.8833 15.286 18.0026 16.6667 18.0026C18.0474 18.0026 19.1667 16.8833 19.1667 15.5026C19.1667 14.1219 18.0474 13.0026 16.6667 13.0026ZM12.5 15.5026C12.5 13.2014 14.3655 11.3359 16.6667 11.3359C18.9679 11.3359 20.8333 13.2014 20.8333 15.5026C20.8333 17.8038 18.9679 19.6693 16.6667 19.6693C14.3655 19.6693 12.5 17.8038 12.5 15.5026Z" fill="#3576C2"/>
<path fill-rule="evenodd" clip-rule="evenodd" d="M28.9226 14.9081C29.248 15.2336 29.248 15.7612 28.9226 16.0867L25.5893 19.42C25.2638 19.7454 24.7362 19.7454 24.4107 19.42L22.7441 17.7533C22.4186 17.4279 22.4186 16.9002 22.7441 16.5748C23.0695 16.2494 23.5972 16.2494 23.9226 16.5748L25 17.6522L27.7441 14.9081C28.0695 14.5827 28.5972 14.5827 28.9226 14.9081Z" fill="#3576C2"/>
</svg>
