<svg width="36" height="37" viewBox="0 0 36 37" fill="none" xmlns="http://www.w3.org/2000/svg">
<circle cx="17.8082" cy="18.4244" r="17.8082" fill="white"/>
<path d="M11.3362 20.2824C11.1785 20.283 11.0239 20.2388 10.8903 20.1549C10.7567 20.0711 10.6497 19.9511 10.5816 19.8088C10.5136 19.6666 10.4873 19.5079 10.5058 19.3513C10.5243 19.1947 10.5868 19.0466 10.6862 18.9241L18.9362 10.4241C18.9981 10.3527 19.0824 10.3044 19.1753 10.2872C19.2683 10.27 19.3643 10.285 19.4476 10.3295C19.531 10.3741 19.5967 10.4457 19.634 10.5325C19.6712 10.6194 19.6779 10.7163 19.6528 10.8074L18.0528 15.8241C18.0057 15.9504 17.9898 16.0862 18.0067 16.2199C18.0235 16.3537 18.0726 16.4813 18.1496 16.592C18.2266 16.7026 18.3293 16.7929 18.4489 16.8551C18.5685 16.9173 18.7014 16.9495 18.8362 16.9491H24.6695C24.8272 16.9486 24.9818 16.9928 25.1154 17.0766C25.2489 17.1605 25.356 17.2805 25.4241 17.4227C25.4921 17.565 25.5184 17.7236 25.4999 17.8802C25.4814 18.0368 25.4189 18.185 25.3195 18.3074L17.0695 26.8074C17.0076 26.8789 16.9233 26.9271 16.8304 26.9443C16.7374 26.9615 16.6414 26.9466 16.5581 26.902C16.4747 26.8574 16.409 26.7859 16.3717 26.699C16.3344 26.6122 16.3278 26.5152 16.3528 26.4241L17.9528 21.4074C18 21.2812 18.0159 21.1453 17.999 21.0116C17.9822 20.8779 17.9331 20.7502 17.8561 20.6396C17.7791 20.529 17.6764 20.4387 17.5568 20.3765C17.4372 20.3143 17.3043 20.282 17.1695 20.2824H11.3362Z" stroke="#3576C2" stroke-width="1.66667" stroke-linecap="round" stroke-linejoin="round"/>
</svg>
